<svg xmlns="http://www.w3.org/2000/svg" version="1.1" xmlns:xlink="http://www.w3.org/1999/xlink" width="512" height="512" x="0" y="0" viewBox="0 0 512 512" style="enable-background:new 0 0 512 512" xml:space="preserve" class=""><g><path d="m93 108.5 14.9 30.8 33.8 4.6c6.7.9 9.1 9.2 4.5 13.6l-24.7 23.7 6.1 33.6c1.2 6.6-5.8 11.6-11.6 8.4L85.9 207l-30.1 16.2c-5.8 3.1-13.1-1.7-11.5-8.9l6-33.2-24.7-23.7c-4.8-4.6-2.2-12.8 4.6-13.7l33.7-4.6 14.9-30.8c2.8-5.9 11.4-5.8 14.2.2m2.4 41.6-9.5-19.8-9.6 19.8c-1.1 2.3-3.4 4.1-6.1 4.5l-21.7 2.9 15.9 15.2c1.8 1.8 2.8 4.4 2.3 7.1l-3.9 21.6L82 191.1c2.3-1.2 5.2-1.4 7.6 0l19.3 10.4-3.8-21.2c-.6-2.6.1-5.5 2.2-7.6l15.9-15.2-21.5-2.9c-2.6-.3-5.1-2-6.3-4.5M263.2 36l14.9 30.8 33.9 4.6c6.7.9 9.1 9.2 4.5 13.7l-24.7 23.7 6.1 33.6c1.2 6.6-5.8 11.6-11.6 8.4L256 134.6l-30.1 16.2c-5.8 3.1-13.1-1.7-11.5-8.9l6-33.2L195.6 85c-4.8-4.6-2.2-12.8 4.6-13.7l33.7-4.6L248.8 36c3-6.1 11.5-6 14.4 0m2.4 41.6L256 57.8l-9.5 19.8c-1.1 2.3-3.4 4.1-6.1 4.5L218.6 85l15.9 15.2c1.9 1.8 2.8 4.4 2.3 7.1l-3.9 21.6 19.3-10.3c2.3-1.2 5.1-1.4 7.6 0l19.3 10.4-3.8-21.2c-.6-2.6.1-5.5 2.2-7.6L293.4 85l-21.5-3c-2.7-.2-5.1-1.9-6.3-4.4m167.7 30.9 14.9 30.8 33.8 4.6c6.7.9 9.2 9.2 4.5 13.6l-24.7 23.7 6.1 33.6c1.2 6.6-5.8 11.6-11.6 8.4L426.2 207l-30.1 16.2c-5.8 3.1-13.1-1.7-11.6-8.9l6-33.2-24.7-23.7c-4.8-4.6-2.2-12.8 4.6-13.7l33.7-4.6 14.9-30.8c2.9-5.9 11.5-5.8 14.3.2m2.4 41.6-9.5-19.8-9.6 19.8c-1.1 2.3-3.3 4.1-6.1 4.5l-21.7 2.9 15.8 15.2c1.8 1.8 2.8 4.4 2.3 7.1l-3.9 21.6 19.3-10.3c2.3-1.2 5.2-1.4 7.6 0l19.4 10.4-3.8-21.2c-.6-2.6.1-5.5 2.2-7.6l15.8-15.2-21.5-2.9c-2.6-.3-5.1-2-6.3-4.5M218.9 312.7c-2.2-3.8-.9-8.7 2.9-10.9s8.7-.9 10.9 2.9l10.5 18.2 37.3-37.3c3.1-3.1 8.2-3.1 11.3 0s3.1 8.2 0 11.3l-44.7 44.7c-3.7 3.7-9.9 2.9-12.5-1.6zm37.1-84.5c43.5 0 78.8 35.3 78.8 78.8s-35.3 78.8-78.8 78.8-78.8-35.3-78.8-78.8 35.3-78.8 78.8-78.8m44.4 34.4c-24.5-24.5-64.3-24.5-88.8 0s-24.5 64.3 0 88.8 64.3 24.5 88.8 0c24.5-24.6 24.5-64.3 0-88.8M256 178.7c70.8 0 128.2 57.4 128.2 128.2 0 26.8-8.2 51.7-22.3 72.3l38.3 66.3c3.7 6.2-1.4 13.2-8 12.2l-39.2-6.2-21 25.8c-3.7 4.8-10.6 4-13.3-.8l-26.8-46.4c-23.4 6.8-48.5 6.8-71.8 0l-26.8 46.4c-2.7 4.8-9.6 5.6-13.3.8l-21-25.8-39.2 6.2c-6.7 1.1-11.4-6.2-8.2-11.9l38.5-66.6c-34.8-50.9-28.3-119.4 15.3-163 23.1-23.1 55.2-37.5 90.6-37.5m95.3 214c-12.2 13.6-27.2 24.5-44.2 31.9l19.6 33.9 16.8-20.6c1.9-2.4 4.8-3.3 7.6-2.8l27 4.3zm-146.5 31.9c-16.9-7.4-31.9-18.3-44.1-31.8l-26.9 46.6 27-4.3c2.7-.5 5.7.5 7.6 2.8l16.8 20.6zm130.6-197c-43.8-43.8-114.9-43.8-158.7 0s-43.8 114.9 0 158.7c43.9 43.8 114.9 43.8 158.7 0s43.8-114.9 0-158.7" fill="#E0002C" opacity="1" data-original="#000000" class=""></path></g></svg>